
<!-- Generator: visioncortex VTracer 0.6.4 -->
<svg version="1.1" xmlns="http://www.w3.org/2000/svg" viewBox="0 0 1080 1080" preserveAspectRatio="xMidYMid meet">
<path d="M0 0 C9.49154749 0.01647883 18.98270501 0.00000201 28.47424507 -0.01647949 C372.33450326 0.10192768 602.00294474 50.51161578 684.5084095 665.52454948 C684.49193067 675.01609698 684.50840749 684.50725449 684.52488899 693.99879456 C684.40648182 1037.85905275 633.99679372 1267.52749423 18.98386002 1350.03295898 C9.49231252 1350.01648016 0.00115501 1350.03295698 -9.49038506 1350.04943848 C-353.35064325 1349.93103131 -583.01908473 1299.52134321 -665.52454948 684.5084095 C-665.50807066 675.01686201 -665.52454748 665.52570449 -665.54102898 656.03416443 C-665.42262181 312.17390624 -615.01293371 82.50546476 0 0 Z " fill="#FEFEFE" transform="translate(530.5080699920654,-135.0164794921875)"/>
<path d="M0 0 C2.81853516 0.68513672 5.63707031 1.37027344 8.54101562 2.07617188 C36.30486106 10.34571761 41.06607117 49.12922957 12.7421875 61.25 C6.61546675 65.75230836 10.34937688 68.32433329 14.125 74 C15.38441406 75.9490625 16.64382813 77.898125 17.94140625 79.90625 C19.28074219 81.9171875 20.62007813 83.928125 22 86 C24.36597907 89.82605386 26.72087886 93.65899029 29.0625 97.5 C32.30417608 102.72514908 35.58856585 107.88284878 39 113 C39 133.42690346 11.41995889 94.89093426 10 92 C7.44030452 87.70236572 4.83768881 83.42992863 2.1875 79.1875 C-4 69.22137405 -4 69.22137405 -4 67 C-27.58747924 62.3120243 -31.2126949 68.58172615 -28.625 91 C-28.18213108 95.4944869 -27.79566426 99.99503391 -27.4765625 104.5 C-27.25049316 106.5109375 -27.02442383 108.521875 -26.79150391 110.59375 C-33.82359802 136.23319133 -44.66661509 97.33270699 -44.84375 89.84375 C-44.92355103 87.29120483 -45.00335205 84.73865967 -45.08557129 82.10876465 C-45.21818139 76.69557558 -45.3094721 71.28124499 -45.36328125 65.86669922 C-45.49970991 57.51775238 -45.93308916 49.21652086 -46.375 40.87890625 C-47.4454872 2.65505015 -38.59789673 -9.43417901 0 0 Z " fill="#FEDE5D" transform="translate(357,486)"/>
<path d="M0 0 C1.33452805 3.61786544 2.70588419 7.22235391 4.11328125 10.8125 C5.51409767 14.5412623 6.9138137 18.27043815 8.3125 22 C10.52215132 27.85779074 12.73488852 33.7144081 14.94824219 39.57080078 C16.79271756 44.4515056 18.63479212 49.33311754 20.4765625 54.21484375 C21.45367187 56.76332031 22.43078125 59.31179688 23.4375 61.9375 C24.70400391 65.26134766 24.70400391 65.26134766 25.99609375 68.65234375 C30.97021382 79.4441481 34.98295896 58.14477534 36.9375 52.9375 C37.64551758 51.10010254 38.35353516 49.26270508 39.08300781 47.36962891 C43.16120528 36.75298804 46.99959594 26.10324799 50.58203125 15.30859375 C51.36006104 13.07021729 52.13809082 10.83184082 52.93969727 8.52563477 C54.46316767 4.14004275 55.91743239 -0.27028996 57.29663086 -4.70336914 C58.36409546 -7.7003186 58.36409546 -7.7003186 59.453125 -10.7578125 C60.04254883 -12.5433252 60.63197266 -14.32883789 61.23925781 -16.16845703 C81.0129843 -36.31444921 87.81637415 -11.20777018 87.41015625 5.15625 C87.41268906 7.70879517 87.41522186 10.26134033 87.41783142 12.89123535 C87.40071366 18.30562 87.33417579 23.72003264 87.22290039 29.13330078 C87.06313655 37.46679669 87.07895867 45.78642 87.11914062 54.12109375 C87.08076543 59.36206613 87.03227817 64.60297626 86.97265625 69.84375 C86.97701187 72.35923462 86.98136749 74.87471924 86.9858551 77.46643066 C86.53489755 93.79877356 71.36776096 107.67569393 70.87329102 85.00756836 C71.02296556 80.44927007 71.23802072 75.89284173 71.50390625 71.33984375 C71.66583209 66.51989902 71.82395436 61.69982519 71.97851562 56.87963867 C72.07817627 54.41385345 72.17783691 51.94806824 72.28051758 49.40756226 C72.72078935 37.74421973 72.8981466 26.09270531 72.94140625 14.421875 C72.99518936 12.27481552 73.04897247 10.12775604 73.10438538 7.91563416 C73.17926074 -20.31298868 58.35939305 26.02973759 55.9140625 34.0390625 C54.89980205 37.30053365 53.88319603 40.56127629 52.86425781 43.82128906 C51.91905273 46.85026367 50.97384766 49.87923828 50 53 C47.25378036 61.23865892 44.35424206 69.40592568 41.375 77.5625 C40.79878906 79.33391357 40.22257812 81.10532715 39.62890625 82.93041992 C30.76656906 107.95326899 19.43468585 92.48870476 13.9375 75.625 C12.50118013 71.52517121 11.06227575 67.42624717 9.62109375 63.328125 C8.87843262 61.16443359 8.13577148 59.00074219 7.37060547 56.77148438 C3.32441211 45.21378931 -1.10740047 33.80447343 -5.5 22.375 C-7.11664498 18.13359774 -8.73139651 13.89147301 -10.34375 9.6484375 C-11.02630859 7.85583496 -11.70886719 6.06323242 -12.41210938 4.21630859 C-13.31275097 1.82484484 -14.19190012 -0.57570036 -15 -3 C-15.01213088 4.05042855 -14.96287789 11.09469907 -14.89453125 18.14453125 C-14.87045591 24.97761851 -14.8569527 31.81068305 -14.84350586 38.64379883 C-14.82285797 43.41768784 -14.78253573 48.19153284 -14.72241211 52.96508789 C-14.64129364 59.79677617 -14.63562457 66.62494512 -14.64453125 73.45703125 C-14.60133255 75.61007278 -14.55813385 77.76311432 -14.5136261 79.98139954 C-14.64947956 96.84234254 -29.3666455 103.43370025 -29.6796875 84.44335938 C-29.74333496 82.1409729 -29.80698242 79.83858643 -29.87255859 77.46643066 C-29.87336426 74.95094604 -29.87416992 72.43546143 -29.875 69.84375 C-29.9054541 67.29120483 -29.9359082 64.73865967 -29.96728516 62.10876465 C-30.01063908 56.69490266 -30.02184085 51.28070509 -30.00390625 45.86669922 C-30.00001486 37.53182438 -30.16630029 29.21164899 -30.34375 20.87890625 C-30.36457406 15.63805185 -30.37533084 10.39714576 -30.375 5.15625 C-30.44058105 2.64076538 -30.50616211 0.12528076 -30.57373047 -2.46643066 C-30.07992771 -33.0111239 -6.40055588 -23.35449082 0 0 Z " fill="#FEDE5B" transform="translate(438,506)"/>
<path d="M0 0 C1.31942678 3.39169991 2.64562928 6.78076753 3.9765625 10.16796875 C5.52768865 14.17384182 7.07707139 18.18039026 8.625 22.1875 C10.31230183 26.55085789 11.99980818 30.91413669 13.6875 35.27734375 C14.55632812 37.52401855 15.42515625 39.77069336 16.3203125 42.08544922 C19.0160343 49.04137423 21.72480664 55.9920839 24.4375 62.94140625 C25.30681152 65.17188721 26.17612305 67.40236816 27.07177734 69.70043945 C28.75130094 74.00877562 30.43383455 78.31593981 32.11962891 82.62182617 C32.87679199 84.56677979 33.63395508 86.5117334 34.4140625 88.515625 C35.0838916 90.23040039 35.7537207 91.94517578 36.44384766 93.71191406 C42.09689779 109.28928659 26.76891867 106.09478721 20.7890625 95.6328125 C19.67154778 92.48514603 18.61910775 89.31379179 17.625 86.125 C17.068125 84.52011719 16.51125 82.91523437 15.9375 81.26171875 C12 69.76926185 12 69.76926185 12 67 C4.25032915 66.32821701 -3.53751646 66.39571504 -11.3125 66.3125 C-13.52904297 66.24611328 -15.74558594 66.17972656 -18.02929688 66.11132812 C-20.14013672 66.09134766 -22.25097656 66.07136719 -24.42578125 66.05078125 C-26.37911377 66.01637939 -28.33244629 65.98197754 -30.3449707 65.9465332 C-38.47052782 67.78540555 -37.87441889 75.57144521 -39.98828125 82.78515625 C-40.75527344 85.18667969 -41.52226562 87.58820313 -42.3125 90.0625 C-43.42044922 93.69958984 -43.42044922 93.69958984 -44.55078125 97.41015625 C-51.21105597 108.2038744 -64.61877216 107.53135137 -59 93 C-58.39583252 91.35572021 -57.79166504 89.71144043 -57.16918945 88.01733398 C-56.49073975 86.27782471 -55.81229004 84.53831543 -55.11328125 82.74609375 C-54.34717529 80.77624512 -53.58106934 78.80639648 -52.79174805 76.77685547 C-51.97359619 74.68486816 -51.15544434 72.59288086 -50.3125 70.4375 C-49.47050049 68.27590332 -48.62850098 66.11430664 -47.76098633 63.88720703 C-46.02500187 59.43210656 -44.28728069 54.97768245 -42.54785156 50.52392578 C-40.16088819 44.4119638 -37.77871621 38.29816157 -35.3984375 32.18359375 C-31.60787937 22.45219257 -27.81467763 12.72197841 -24 3 C-22.99710938 0.18082031 -21.99421875 -2.63835937 -20.9609375 -5.54296875 C-13.65892994 -21.46673986 -4.06327224 -11.22065106 0 0 Z " fill="#FEDE5C" transform="translate(265,498)"/>
<path d="M0 0 C-7.67497659 48.03488756 46.97684038 64.71749895 63.35839844 33.25683594 C65.28171802 19.91367232 63.00261911 6.84687785 60.10498047 -6.22070312 C63.46072132 -29.90889069 76.70726274 5.05519468 76.6015625 14.4375 C76.62165375 18.26631775 76.62165375 18.26631775 76.64215088 22.17248535 C76.65170731 27.58655609 76.62566766 33.00078535 76.56738281 38.41455078 C76.49249131 46.74744629 76.56654124 55.06978044 76.65625 63.40234375 C76.64699922 68.64325271 76.62906319 73.88415503 76.6015625 79.125 C76.62990173 81.64048462 76.65824097 84.15596924 76.68743896 86.74768066 C76.48450236 97.33539552 62.68438232 119.39018624 60.10498047 99.32421875 C60.56018066 97.06191406 61.01538086 94.79960938 61.484375 92.46875 C68.65796271 42.99055914 15.36117276 19.34073249 -1.87402344 55.81835938 C-3.79305265 70.49026832 -1.52229916 84.90305791 1.37939453 99.32421875 C-1.72021073 123.43701002 -15.22967293 89.10958092 -15.1171875 79.125 C-15.13058167 76.57245483 -15.14397583 74.01990967 -15.15777588 71.39001465 C-15.16733231 65.97594391 -15.14129266 60.56171465 -15.08300781 55.14794922 C-15.00811631 46.81505371 -15.08216624 38.49271956 -15.171875 30.16015625 C-15.16262422 24.91924729 -15.14468819 19.67834497 -15.1171875 14.4375 C-15.14552673 11.92201538 -15.17386597 9.40653076 -15.20306396 6.81481934 C-14.83878057 -12.19076463 4.4532968 -20.08318629 0 0 Z " fill="#FEDE5E" transform="translate(874.2578125,496.71875)"/>
<path d="M0 0 C-4.58984375 0.77514648 -4.58984375 0.77514648 -10.9375 -0.12890625 C-13.20125488 -0.35835938 -15.46500977 -0.5878125 -17.79736328 -0.82421875 C-20.1742334 -1.06785156 -22.55110352 -1.31148438 -25 -1.5625 C-55.94561938 -3.5624676 -70.93357629 36.49036715 -39.1171875 39.03515625 C-32.3557094 39.01450579 -25.80952896 38.54216013 -19.08642578 37.82421875 C-15.82614502 37.48003906 -15.82614502 37.48003906 -12.5 37.12890625 C-10.4890625 36.83056885 -8.478125 36.53223145 -6.40625 36.22485352 C5.10390768 38.2497178 -0.81658611 50.61352685 -12.5 48.6953125 C-49.98985133 44.29307932 -81.36804862 80.20044156 -44.78369141 92.79589844 C-30.97821918 94.04251436 -17.3381584 92.41447108 -3.68164062 90.30419922 C20.8469409 93.94971744 -37.2555681 111.90933326 -49.27734375 111.05859375 C-92.92929728 97.96380084 -87.41799607 -28.67136325 0 0 Z " fill="#FEDE5E" transform="translate(744,498)"/>
<path d="M0 0 C-4.29858398 1.02905273 -4.29858398 1.02905273 -10.24609375 0.43359375 C-12.36208984 0.30017578 -14.47808594 0.16675781 -16.65820312 0.02929688 C-21.17704074 -0.36517382 -25.69294108 -0.79487878 -30.20507812 -1.25976562 C-49.11012418 -2.34745321 -49.70004775 3.46675544 -48 21 C-48.309375 23.59875 -48.61875 26.1975 -48.9375 28.875 C-49.85496988 35.15415295 -49.85496988 35.15415295 -43 33 C17.44592842 31.42997589 24.80238924 103.53326697 -37 105.25 C-70.26385224 104.3260041 -70.26385224 104.3260041 -65 86 C-57.3125 88.1875 -57.3125 88.1875 -52.36328125 90.19140625 C-21.19306757 100.70255624 17.15196389 62.14867075 -21.375 46.1875 C-31.17808077 44.11796073 -40.76811484 44.78225511 -50.6875 45.75 C-62.00165691 46.19808542 -62 42.9660148 -62 32 C-62.37794599 28.46505414 -62.76644515 24.93122477 -63.1640625 21.3984375 C-66.69366953 -37.01800141 4.58836226 -18.865364 0 0 Z " fill="#FEDE5C" transform="translate(191,498)"/>
<path d="M0 0 C2.10246094 0.00386719 4.20492187 0.00773437 6.37109375 0.01171875 C35.50521635 1.42706729 35.50521635 1.42706729 27.5625 17.3125 C18.5625 15.3125 18.5625 15.3125 12.5625 13.3125 C8.8180299 13.07360947 5.06450282 12.96199088 1.3125 12.9375 C-0.65203125 12.90914063 -2.6165625 12.88078125 -4.640625 12.8515625 C-60.63646138 17.30406162 -47.13855329 108.09104189 10.5625 105.3125 C14.59083918 104.43358963 18.6054013 103.47067523 22.5625 102.3125 C41.88604739 102.3125 10.28584545 117.51819626 -0.625 117.625 C-3.11417969 117.66238281 -5.60335937 117.69976563 -8.16796875 117.73828125 C-75.83327304 113.77507966 -67.87937669 -0.54037471 0 0 Z " fill="#FEDE5C" transform="translate(813.4375,484.6875)"/>
<path d="M0 0 C1.90885986 -0.01148071 3.81771973 -0.02296143 5.78442383 -0.03479004 C9.83321864 -0.04298129 13.88216918 -0.02066082 17.93066406 0.02929688 C24.1630717 0.09349836 30.38510623 0.03002776 36.6171875 -0.046875 C40.53648146 -0.03894575 44.45576891 -0.02357196 48.375 0 C50.25614502 -0.02429077 52.13729004 -0.04858154 54.07543945 -0.0736084 C64.90653537 0.1643402 72.05162774 1.41739278 67.1875 13.59375 C59.36083984 12.95507812 59.36083984 12.95507812 54.45132446 12.02062988 C19.08823706 5.90380307 27.94653187 40.63857249 29.8125 65.09375 C30.25716878 72.43963991 30.65156118 79.78220779 30.9703064 87.13464355 C31.18147561 91.7242028 31.47386808 96.31079868 31.85025024 100.88977051 C32.78994831 117.41612405 18.49238262 128.71257354 16.16943359 107.13867188 C16.41748053 102.77630115 16.72798752 98.41723046 17.0859375 94.0625 C17.3018994 89.3687764 17.51133577 84.67474881 17.71484375 79.98046875 C18.11291722 72.5117817 18.56524198 65.05781389 19.13427734 57.60009766 C22.93363443 17.76113481 22.93363443 17.76113481 -10.98583984 12.95507812 C-32.00562678 14.6703368 -13.97253032 -0.18042391 0 0 Z " fill="#FEDE5D" transform="translate(600.8125,484.40625)"/>
<path d="M0 0 C-5.99063757 9.58502011 -9.43883551 12.25110116 -20 15 C-22.12695312 15.60714844 -24.25390625 16.21429687 -26.4453125 16.83984375 C-101.32338485 29.14436909 6.18065019 -100.65630306 0 0 Z " fill="#FBFAF9" transform="translate(374,527)"/>
<path d="M0 0 C2.98974748 8.75603517 6.09293872 17.43579737 9.4375 26.0625 C15.70818432 42.59430413 8.12710803 38.78087519 -5.8125 38.9375 C-7.60236328 39.00775391 -9.39222656 39.07800781 -11.23632812 39.15039062 C-26.79838215 39.32363422 -26.79838215 39.32363422 -21.125 28.125 C-19.82369141 24.48017578 -19.82369141 24.48017578 -18.49609375 20.76171875 C-17.52800781 18.13847656 -16.55992187 15.51523437 -15.5625 12.8125 C-14.59183594 10.17636719 -13.62117187 7.54023437 -12.62109375 4.82421875 C-11.16242671 0.9093299 -9.67659825 -2.99600437 -8.125 -6.875 C-4.16273021 -22.72407915 -2.44076064 -7.22022921 0 0 Z " fill="#F9F8F3" transform="translate(259.125,514.875)"/>
<path d="M0 0 C-2.06482381 2.40896111 -17 13.28427423 -17 2 C-18.98 2.33 -20.96 2.66 -23 3 C-25.041875 2.95875 -27.08375 2.9175 -29.1875 2.875 C-47.87997615 3.21798121 -57.15782304 12.90516996 -68 27 C-70.60426349 28.30213175 -58.71418098 3.0537236 -49.6875 -1.9375 C-34.62170273 -8.5664508 -19.00268675 -5.15243787 -4 0 C-3.34 -1.98 -2.68 -3.96 -2 -6 C0.9764069 -11.95281381 0 -3.41953977 0 0 Z " fill="#F3F3F1" transform="translate(845,502)"/>
<path d="M0 0 C-6.46117074 9.69175611 -10.75260792 8.29936743 -22.2421875 8.55859375 C-37.02176306 9.92976948 -33.13424379 22.45763979 -33.140625 34.0078125 C-33.15895342 37.92188082 -33.17852375 41.83594348 -33.19921875 45.75 C-33.22819699 51.93857334 -33.25000014 58.12678407 -33.25048828 64.31542969 C-33.25382018 70.27572024 -33.28836495 76.23516803 -33.328125 82.1953125 C-33.31752045 84.9660466 -33.31752045 84.9660466 -33.30670166 87.79275513 C-33.40908934 98.59226838 -47 126.17581363 -47 103 C-45.19897324 103.07126099 -43.39794647 103.14252197 -41.54234314 103.21594238 C-30.78896953 102.79696632 -35.56570012 88.77545702 -36.19140625 80.46875 C-36.39865171 75.77505944 -36.59828959 71.0810279 -36.79101562 66.38671875 C-37.15138742 58.91732873 -37.56509553 51.46457663 -38.11157227 44.00634766 C-40.38590363 11.38138206 -39.00742322 -12.58246086 0 0 Z " fill="#F4F4F4" transform="translate(668,498)"/>
<path d="M0 0 C0.86633663 14.48019802 0.86633663 14.48019802 -5 18 C-8.465 20.97 -8.465 20.97 -12 24 C-15.96 24.495 -15.96 24.495 -20 25 C-21.65 25.33 -23.3 25.66 -25 26 C-32.63093242 26 -36.99053149 25.3044828 -44 23 C-44.66 23 -45.32 23 -46 23 C-46 22.34 -46 21.68 -46 21 C-47.65 21 -49.3 21 -51 21 C-58 16 -58 16 -58 14 C-58.99 14 -59.98 14 -61 14 C-61 13.34 -61 12.68 -61 12 C-62.65 11.67 -64.3 11.34 -66 11 C-71.28042089 4.39947389 -75.29452147 -2.9708911 -62 7 C-50.62352753 14.11029529 -42.80336333 15.4022965 -29.4375 15.3125 C-26.94058594 15.30863281 -24.44367187 15.30476562 -21.87109375 15.30078125 C-14.5838621 15.18146312 -14.5838621 15.18146312 -6 13 C-3.525 12.505 -3.525 12.505 -1 12 C-1.6185567 0 -1.6185567 0 0 0 Z " fill="#F3F2ED" transform="translate(842,586)"/>
<path d="M0 0 C2.86171875 -0.06960938 2.86171875 -0.06960938 5.78125 -0.140625 C26.51557757 0.03709781 26.51557757 14.96290219 5.78125 15.140625 C3.8734375 15.09421875 1.965625 15.0478125 0 15 C-2.86171875 15.06960938 -2.86171875 15.06960938 -5.78125 15.140625 C-32.71561592 14.90975901 -19.90868748 -0.48426537 0 0 Z " fill="#FEDF61" transform="translate(560,550.5)"/>
<path d="M0 0 C2.76117187 0.00128906 5.52234375 0.00257813 8.3671875 0.00390625 C11.285625 0.03613281 14.2040625 0.06835938 17.2109375 0.1015625 C20.13710938 0.09511719 23.06328125 0.08867188 26.078125 0.08203125 C48.53593132 0.19746857 52.15535015 9.27830301 29.046875 9.1875 C26.77554688 9.18363281 24.50421875 9.17976562 22.1640625 9.17578125 C19.78703125 9.15128906 17.41 9.12679687 14.9609375 9.1015625 C12.57617188 9.10027344 10.19140625 9.09898437 7.734375 9.09765625 C-7.70799778 9.01868957 -25.27542321 -0.05867311 0 0 Z " fill="#F2F2F2" transform="translate(697.4140625,600.2734375)"/>
<path d="M0 0 C1.51295515 20.04665579 -8.70385761 20.8152014 -26.0625 20.5625 C-39.49621944 19.86717018 -39.49621944 19.86717018 -51 26 C-56.71140661 6.30946511 -39.83367453 10.88047097 -26 11.875 C-21.3158563 12.19656014 -16.62789127 12.46794984 -11.9375 12.6796875 C-9.84277344 12.83163574 -7.74804688 12.98358398 -5.58984375 13.14013672 C1.32758434 11.42181814 -0.98286851 0 0 0 Z " fill="#F3F2F1" transform="translate(745,486)"/>
<path d="M0 0 C0.495 0.99 0.495 0.99 1 2 C0.01 3.65 -0.98 5.3 -2 7 C-4.2236068 10.7018576 -4.2236068 10.7018576 -4 14 C-6.5 19 -6.5 19 -9 24 C-9 24.99 -9 25.98 -9 27 C-10.66666667 30.33333333 -12.33333333 33.66666667 -14 37 C-14 37.99 -14 38.98 -14 40 C-14.99 41.98 -15.98 43.96 -17 46 C-17.66 47.98 -18.32 49.96 -19 52 C-24.02519242 59.53778863 -35 69.88349185 -35 54 C-33.205625 54.020625 -31.41125 54.04125 -29.5625 54.0625 C-23.13869141 54.90313687 -23.13869141 54.90313687 -23 48 C-21.66411447 44.26884439 -20.25974351 40.56201367 -18.81640625 36.87109375 C-17.97142578 34.70224609 -17.12644531 32.53339844 -16.25585938 30.29882812 C-15.36705078 28.03458984 -14.47824219 25.77035156 -13.5625 23.4375 C-12.67755859 21.16939453 -11.79261719 18.90128906 -10.88085938 16.56445312 C-7.92377098 8.9904331 8.71155541 -14.51925902 0 0 Z " fill="#F5F4F0" transform="translate(496,547)"/>
<path d="M0 0 C2.30613281 0.02126953 4.61226562 0.04253906 6.98828125 0.06445312 C39.54154804 0.76961291 9.98311449 8.51362442 -6.6796875 8.74609375 C-14.42475708 9.20527154 -17.9974908 10.5918681 -24.125 15.1875 C-29.1276609 -3.98936677 -14.18092394 -0.58457538 0 0 Z " fill="#F2F2F2" transform="translate(718.125,545.8125)"/>
<path d="M0 0 C2.90167969 0.00386719 5.80335938 0.00773438 8.79296875 0.01171875 C32.15739781 1.01286568 -3.14122234 3.59115583 -8.671875 3.640625 C-20.85687259 4.72992832 -24.4910584 11.22317521 -28.1875 22.3125 C-29.1775 23.9625 -30.1675 25.6125 -31.1875 27.3125 C-30.8575 27.9725 -30.5275 28.6325 -30.1875 29.3125 C-46.1875 50.64583333 -46.1875 50.64583333 -46.1875 32.3125 C-42.8875 32.3125 -39.5875 32.3125 -36.1875 32.3125 C-35.5275 29.3425 -34.8675 26.3725 -34.1875 23.3125 C-28.09273691 5.61424564 -28.09273691 5.61424564 -21.1875 3.3125 C-14.07978239 -0.95213057 -8.23612222 -0.04769247 0 0 Z " fill="#F5F5F3" transform="translate(253.1875,568.6875)"/>
<path d="M0 0 C2.09021484 0.00644531 4.18042969 0.01289063 6.33398438 0.01953125 C8.53763672 0.07238281 10.74128906 0.12523437 13.01171875 0.1796875 C15.23470703 0.17839844 17.45769531 0.17710937 19.74804688 0.17578125 C53.05879893 0.5673088 16.9872892 7.33307852 3.57421875 7.578125 C-5.803842 8.22819512 -7.93112638 8.46710341 -9.30078125 18.0546875 C-13.50608735 45.12634551 -17.74119345 -0.13945748 0 0 Z " fill="#F2F0E9" transform="translate(154.30078125,496.9453125)"/>
<path d="M0 0 C0.03424072 2.43318604 0.06848145 4.86637207 0.10375977 7.37329102 C0.10947998 9.65936279 0.1152002 11.94543457 0.12109375 14.30078125 C0.13454834 16.35079346 0.14800293 18.40080566 0.16186523 20.51293945 C-0.4375 25.6875 -0.4375 25.6875 -5.4375 31.6875 C-6.0975 32.6775 -6.7575 33.6675 -7.4375 34.6875 C-18.12972073 32.01444482 -14.67656733 25.6875 -3.4375 25.6875 C-2.50550375 18.80881883 -2.3045333 12.88793098 -2.49609375 6 C-2.5126149 4.00235596 -2.52913605 2.00471191 -2.54615784 -0.0534668 C-2.60908794 -6.47468835 -2.74070952 -12.89240978 -2.875 -19.3125 C-2.9618872 -25.73209948 -3.03521306 -32.15175443 -3.10743713 -38.5715332 C-3.15784174 -42.57804796 -3.21995474 -46.58443408 -3.29429626 -50.59057617 C-3.9257151 -85.75741113 -0.08161889 -11.10343329 0 0 Z " fill="#F7F3E3" transform="translate(425.4375,575.3125)"/>
<path d="M0 0 C2.03929687 0.00386719 4.07859375 0.00773438 6.1796875 0.01171875 C8.30148437 0.03621094 10.42328125 0.06070313 12.609375 0.0859375 C14.74664063 0.08722656 16.88390625 0.08851563 19.0859375 0.08984375 C21.67573471 0.10461446 47.2884205 1.15125567 34.359375 5.4609375 C24.84586043 5.35197545 15.33508972 5.23364128 5.82421875 4.98242188 C2.83294922 4.94665039 2.83294922 4.94665039 -0.21875 4.91015625 C-2.04825195 4.87237061 -3.87775391 4.83458496 -5.76269531 4.7956543 C-11.54013959 5.13460129 -11.54013959 5.13460129 -17.640625 11.4609375 C-17.640625 -0.32939392 -9.87427376 -0.04336042 0 0 Z " fill="#F5F5F5" transform="translate(892.640625,549.5390625)"/>
</svg>