
<!-- Generator: visioncortex VTracer 0.6.4 -->
<svg version="1.1" xmlns="http://www.w3.org/2000/svg" viewBox="0 0 1080 1080" preserveAspectRatio="xMidYMid meet">
<path d="M0 0 C356.4 0 712.8 0 1080 0 C1080 356.4 1080 712.8 1080 1080 C723.6 1080 367.2 1080 0 1080 C0 723.6 0 367.2 0 0 Z " fill="#000000" transform="translate(0,0)"/>
<path d="M0 0 C55.031 0 55.031 0 65.383 9.109 C72.355 17.261 74.038 25.6 73.453 36 C72.672 44.409 69.294 51.34 63 57 C58.796 60.18 55.241 62.146 50 63 C50.525 63.83 51.049 64.66 51.59 65.516 C58.218 76.045 64.679 86.674 71.109 97.325 C71.468 97.918 71.827 98.512 72.196 99.123 C73.18 100.749 74.162 102.376 75.144 104.002 C76.456 106.121 77.826 108.204 79.235 110.259 C81 113 81 113 81 115 C75.72 115 70.44 115 65 115 C64.417 113.933 63.835 112.865 63.234 111.766 C55.563 97.794 47.586 83.982 38.894 70.616 C38 69 38 69 38 67 C30.08 67 22.16 67 14 67 C14 82.84 14 98.68 14 115 C9.38 115 4.76 115 0 115 C0 77.05 0 39.1 0 0 Z " fill="#F7F7F7" transform="translate(315,486)"/>
<path d="M0 0 C6.6 0 13.2 0 20 0 C25.188 12.89 30.279 25.808 35.22 38.794 C36.261 41.528 37.306 44.26 38.352 46.992 C41.471 55.166 44.521 63.332 47.221 71.656 C48.195 74.586 49.337 77.418 50.562 80.25 C52.5 84.796 54.304 89.359 56 94 C57.84 91.24 58.856 88.968 59.988 85.879 C60.365 84.86 60.742 83.841 61.131 82.791 C61.521 81.726 61.911 80.66 62.312 79.562 C64.581 73.384 66.871 67.235 69.434 61.172 C72.138 54.758 74.574 48.253 76.993 41.728 C82.174 27.757 87.514 13.854 93 0 C99.6 0 106.2 0 113 0 C113 37.95 113 75.9 113 115 C108.71 115 104.42 115 100 115 C100 82.33 100 49.66 100 16 C90.248 41.108 80.508 66.221 70.875 91.375 C70.482 92.399 70.09 93.424 69.685 94.48 C68.578 97.369 67.473 100.259 66.367 103.148 C66.039 104.006 65.711 104.863 65.372 105.746 C65.073 106.53 64.773 107.314 64.464 108.123 C64.204 108.803 63.944 109.484 63.676 110.185 C63.083 111.777 62.537 113.388 62 115 C58.04 115 54.08 115 50 115 C49.567 113.835 49.133 112.671 48.687 111.471 C47.064 107.114 45.438 102.759 43.811 98.405 C43.11 96.526 42.41 94.648 41.71 92.769 C40.7 90.055 39.686 87.342 38.672 84.629 C38.364 83.8 38.057 82.972 37.74 82.118 C35.942 77.323 33.999 72.631 31.871 67.973 C30.559 65.002 29.537 61.951 28.5 58.875 C23.632 45.14 18.26 31.589 13 18 C12.67 50.01 12.34 82.02 12 115 C8.04 115 4.08 115 0 115 C0 77.05 0 39.1 0 0 Z " fill="#FAFAFA" transform="translate(410,486)"/>
<path d="M0 0 C1.091 0.023 2.181 0.046 3.305 0.07 C4.4 0.088 5.496 0.106 6.625 0.125 C7.89 0.16 7.89 0.16 9.18 0.195 C17.006 18.922 24.301 37.837 31.531 56.8 C36.228 69.116 40.967 81.411 45.832 93.662 C53.18 112.202 53.18 112.202 53.18 115.195 C48.56 115.195 43.94 115.195 39.18 115.195 C37.324 110.391 35.473 105.586 33.625 100.779 C32.996 99.143 32.366 97.508 31.734 95.873 C30.827 93.526 29.925 91.177 29.023 88.828 C28.597 87.728 28.597 87.728 28.162 86.606 C26.18 81.423 26.18 81.423 26.18 79.195 C10.67 79.195 -4.84 79.195 -20.82 79.195 C-21.81 82.165 -22.8 85.135 -23.82 88.195 C-25.476 92.716 -27.214 97.204 -28.945 101.695 C-29.4 102.886 -29.855 104.077 -30.324 105.305 C-30.759 106.434 -31.193 107.563 -31.641 108.727 C-32.035 109.753 -32.43 110.78 -32.836 111.838 C-33.82 114.195 -33.82 114.195 -34.82 115.195 C-37.007 115.268 -39.195 115.279 -41.383 115.258 C-42.58 115.249 -43.778 115.24 -45.012 115.23 C-46.402 115.213 -46.402 115.213 -47.82 115.195 C-47.116 110.711 -45.559 106.657 -43.891 102.461 C-43.437 101.306 -43.437 101.306 -42.975 100.128 C-42.316 98.449 -41.655 96.771 -40.992 95.094 C-39.559 91.468 -38.136 87.839 -36.711 84.21 C-35.95 82.269 -35.187 80.328 -34.425 78.387 C-29.831 66.692 -25.295 54.975 -20.758 43.258 C-19.966 41.213 -19.174 39.169 -18.381 37.124 C-18.001 36.141 -17.62 35.158 -17.227 34.145 C-16.484 32.226 -15.739 30.307 -14.994 28.388 C-13.241 23.873 -11.498 19.355 -9.778 14.828 C-9.458 13.99 -9.138 13.153 -8.808 12.29 C-8.211 10.727 -7.618 9.163 -7.03 7.596 C-4.23 0.293 -4.23 0.293 0 0 Z " fill="#F7F7F7" transform="translate(250.8203125,485.8046875)"/>
<path d="M0 0 C4.62 0 9.24 0 14 0 C14 16.17 14 32.34 14 49 C33.8 49 53.6 49 74 49 C74 32.83 74 16.66 74 0 C78.62 0 83.24 0 88 0 C88 37.95 88 75.9 88 115 C83.38 115 78.76 115 74 115 C74 97.18 74 79.36 74 61 C54.2 61 34.4 61 14 61 C14 78.82 14 96.64 14 115 C9.38 115 4.76 115 0 115 C0 77.05 0 39.1 0 0 Z " fill="#F5F5F5" transform="translate(861,486)"/>
<path d="M0 0 C21.45 0 42.9 0 65 0 C65 3.96 65 7.92 65 12 C48.17 12 31.34 12 14 12 C14 24.21 14 36.42 14 49 C29.84 49 45.68 49 62 49 C62 52.96 62 56.92 62 61 C46.16 61 30.32 61 14 61 C14 74.86 14 88.72 14 103 C30.83 103 47.66 103 65 103 C65 106.96 65 110.92 65 115 C43.55 115 22.1 115 0 115 C0 77.05 0 39.1 0 0 Z " fill="#F6F6F6" transform="translate(680,486)"/>
<path d="M0 0 C19.14 0 38.28 0 58 0 C58 3.96 58 7.92 58 12 C42.49 12 26.98 12 11 12 C11 17.28 11 22.56 11 28 C10.732 31.373 10.44 34.657 10 38 C9.905 38.786 9.809 39.573 9.711 40.383 C9.482 42.256 9.243 44.128 9 46 C9.79 45.84 10.58 45.68 11.395 45.516 C22.686 43.901 35.317 43.716 46 48 C46.722 48.267 47.444 48.534 48.188 48.809 C56.184 52.216 60.852 58.721 64.188 66.527 C65.545 70.662 65.597 74.618 65.5 78.938 C65.486 79.818 65.471 80.698 65.457 81.605 C65.11 92.248 62.034 99.002 54.617 106.734 C43.353 116.485 29.29 117.842 14.978 117.161 C7.295 116.535 -0.094 114.373 -7 111 C-7 106.71 -7 102.42 -7 98 C-4.465 99.014 -1.93 100.029 0.594 101.07 C11.893 105.171 26.334 106.459 37.875 102.5 C43.23 99.775 47.372 95.57 49.871 90.09 C51.893 83.298 52.328 75.147 49.375 68.625 C46.037 62.977 42.22 60.161 36.062 58.188 C25.574 55.672 14.627 56.851 4.023 58.074 C0.499 57.988 -1.178 57.041 -4 55 C-3.519 43.194 -2.866 31.41 -2 19.625 C-1.917 18.479 -1.834 17.334 -1.749 16.153 C-1.667 15.064 -1.585 13.974 -1.5 12.852 C-1.428 11.891 -1.356 10.93 -1.281 9.94 C-0.963 6.614 -0.472 3.307 0 0 Z " fill="#F7F7F7" transform="translate(133,486)"/>
<path d="M0 0 C1.652 0 1.652 0 3.338 0 C12.907 0.134 22.768 0.929 30.938 6.375 C30.331 10.503 28.899 13.707 26.938 17.375 C23.38 16.919 20.257 16.143 16.93 14.859 C11.441 13.007 6.252 12.896 0.5 12.938 C-0.473 12.918 -1.445 12.898 -2.447 12.877 C-13.092 12.884 -21.051 16.272 -28.73 23.625 C-35.374 31.459 -39.338 41.142 -40.062 51.375 C-40.11 52.025 -40.158 52.674 -40.207 53.343 C-41.08 67.093 -39.418 82.473 -30.062 93.375 C-22.898 101.352 -15.208 105.095 -4.492 105.715 C3.811 105.974 11.509 105.545 19.492 103.031 C21.938 102.375 21.938 102.375 26.938 102.375 C26.938 106.005 26.938 109.635 26.938 113.375 C18.625 117.052 11.704 117.62 2.623 117.67 C1.18 117.682 -0.263 117.702 -1.705 117.732 C-16.985 118.046 -28.865 114.926 -40.285 104.309 C-45.431 98.932 -48.544 93.347 -51.062 86.375 C-51.456 85.31 -51.849 84.245 -52.254 83.148 C-58.235 64.35 -56.62 43.152 -47.938 25.5 C-40.496 12.788 -30.255 5.603 -16.387 1.211 C-10.978 -0.038 -5.526 -0.008 0 0 Z " fill="#F8F8F8" transform="translate(814.0625,484.625)"/>
<path d="M0 0 C28.38 0 56.76 0 86 0 C86 3.96 86 7.92 86 12 C74.12 12 62.24 12 50 12 C50 45.99 50 79.98 50 115 C45.38 115 40.76 115 36 115 C36 81.01 36 47.02 36 12 C24.12 12 12.24 12 0 12 C0 8.04 0 4.08 0 0 Z " fill="#F7F7F7" transform="translate(582,486)"/>
<path d="M0 0 C4.084 -0.062 8.168 -0.124 12.375 -0.188 C13.641 -0.215 14.908 -0.242 16.212 -0.27 C25.941 -0.341 34.077 0.73 41.625 7.207 C46.306 13.311 45.813 21.734 45 29 C42.86 34.765 38.847 39.22 33.24 41.814 C26.318 44.428 19.759 44.344 12.438 44.188 C8.333 44.126 4.229 44.064 0 44 C0 29.48 0 14.96 0 0 Z " fill="#020202" transform="translate(329,498)"/>
<path d="M0 0 C1.755 2.633 2.639 4.536 3.629 7.48 C4.092 8.839 4.092 8.839 4.564 10.226 C4.894 11.203 5.223 12.18 5.562 13.188 C8.908 22.995 12.469 32.703 16.205 42.368 C16.571 43.324 16.936 44.28 17.312 45.266 C17.802 46.531 17.802 46.531 18.301 47.821 C19 50 19 50 19 53 C6.79 53 -5.42 53 -18 53 C-17.107 48.537 -15.769 44.732 -14.062 40.562 C-10.548 31.783 -7.53 22.85 -4.562 13.875 C-4.336 13.189 -4.109 12.503 -3.875 11.796 C-2.577 7.866 -1.286 3.934 0 0 Z " fill="#090909" transform="translate(253,500)"/>
<path d="M0 0 C13.2 0 26.4 0 40 0 C40 3.96 40 7.92 40 12 C26.8 12 13.6 12 0 12 C0 8.04 0 4.08 0 0 Z " fill="#F2F2F2" transform="translate(540,552)"/>
<path d="M0 0 C0.33 0 0.66 0 1 0 C1 3.63 1 7.26 1 11 C-2 7 -2 7 -1.75 4.375 C-1 2 -1 2 0 0 Z " fill="#484848" transform="translate(510,500)"/>
<path d="M0 0 C0.66 0.33 1.32 0.66 2 1 C0.68 3.31 -0.64 5.62 -2 8 C-2.66 7.34 -3.32 6.68 -4 6 C-2.848 3.532 -1.952 1.952 0 0 Z " fill="#E8E8E8" transform="translate(780,494)"/>
</svg>